<svg width="25" height="24" viewBox="0 0 25 24" fill="none" xmlns="http://www.w3.org/2000/svg">
<g id="Map Location">
<path id="Vector" d="M10.25 9C10.25 7.75736 11.2574 6.75 12.5 6.75C13.7426 6.75 14.75 7.75736 14.75 9C14.75 10.2426 13.7426 11.25 12.5 11.25C11.2574 11.25 10.25 10.2426 10.25 9Z" fill="#5BB8FF"/>
<path id="Vector_2" fill-rule="evenodd" clip-rule="evenodd" d="M12.338 2.5C9.13568 2.5 6.46866 4.95623 6.20558 8.14777C6.06416 9.8635 6.59413 11.5671 7.68388 12.8999L11.2787 17.2962C11.9099 18.0682 13.0901 18.0682 13.7214 17.2962L17.3161 12.8999C18.4059 11.5671 18.9359 9.8635 18.7944 8.14777C18.5314 4.95623 15.8643 2.5 12.662 2.5H12.338ZM12.5 5.25C10.4289 5.25 8.75002 6.92893 8.75002 9C8.75002 11.0711 10.4289 12.75 12.5 12.75C14.5711 12.75 16.25 11.0711 16.25 9C16.25 6.92893 14.5711 5.25 12.5 5.25Z" fill="#5BB8FF"/>
<path id="Vector_3" d="M7.83541 15.3292C8.20589 15.5144 8.35606 15.9649 8.17082 16.3354L6.71353 19.25H18.2865L16.8292 16.3354C16.6439 15.9649 16.7941 15.5144 17.1646 15.3292C17.5351 15.1439 17.9856 15.2941 18.1708 15.6646L20.1708 19.6646C20.2871 19.8971 20.2746 20.1732 20.138 20.3943C20.0013 20.6154 19.7599 20.75 19.5 20.75H5.5C5.24007 20.75 4.99867 20.6154 4.86201 20.3943C4.72536 20.1732 4.71293 19.8971 4.82918 19.6646L6.82918 15.6646C7.01442 15.2941 7.46493 15.1439 7.83541 15.3292Z" fill="#5BB8FF"/>
</g>
</svg>
